{
    "asset" : {
        "generator" : "Khronos glTF Blender I/O v3.2.40",
        "version" : "2.0"
    },
    "scene" : 0,
    "scenes" : [
        {
            "name" : "Scene",
            "nodes" : [
                31
            ]
        }
    ],
    "nodes" : [
        {
            "name" : "face",
            "rotation" : [
                2.2036091518412657e-21,
                3.552713678800501e-15,
                -1.7763564158837768e-15,
                1
            ],
            "translation" : [
                -4.932933961077123e-15,
                -4.896659966391326e-09,
                1.3877787807814457e-17
            ]
        },
        {
            "children" : [
                0
            ],
            "name" : "spine.006",
            "rotation" : [
                -0.11962716281414032,
                1.6326497377888542e-14,
                -2.8521343509169128e-08,
                0.9928188920021057
            ],
            "translation" : [
                2.1094237467877974e-15,
                0.4992236793041229,
                1.4901161193847656e-08
            ]
        },
        {
            "children" : [
                1
            ],
            "name" : "spine.005",
            "rotation" : [
                -0.11594902724027634,
                -2.368106351013921e-07,
                -5.5288786882101704e-08,
                0.9932552576065063
            ],
            "scale" : [
                1,
                1,
                0.9999998807907104
            ],
            "translation" : [
                -1.745131816832668e-14,
                0.5436525940895081,
                2.9802322387695312e-08
            ]
        },
        {
            "children" : [
                2
            ],
            "name" : "spine.004",
            "rotation" : [
                0.2517699897289276,
                3.461077824340464e-07,
                9.003998258094725e-08,
                0.9677872061729431
            ],
            "translation" : [
                -4.3911246776847e-18,
                1.5164519548416138,
                2.9802322387695312e-08
            ]
        },
        {
            "name" : "hand.L",
            "rotation" : [
                -0.025143122300505638,
                0.012668092735111713,
                -0.02023288607597351,
                0.9993988275527954
            ],
            "scale" : [
                0.9999998807907104,
                1,
                1
            ],
            "translation" : [
                -3.427267074584961e-07,
                2.7773828506469727,
                -2.9802322387695312e-08
            ]
        },
        {
            "children" : [
                4
            ],
            "name" : "forearm.L",
            "rotation" : [
                0.17461752891540527,
                -0.1072898656129837,
                -0.026320913806557655,
                0.9784196615219116
            ],
            "scale" : [
                1,
                1.0000001192092896,
                1
            ],
            "translation" : [
                -2.4028122425079346e-07,
                3.066253185272217,
                -1.341104507446289e-07
            ]
        },
        {
            "children" : [
                5
            ],
            "name" : "upper_arm.L",
            "rotation" : [
                0.13002431392669678,
                0.7394858002662659,
                -0.11469539254903793,
                0.6504608988761902
            ],
            "scale" : [
                0.9999999403953552,
                0.9999998807907104,
                0.9999999403953552
            ],
            "translation" : [
                0.6518362164497375,
                0.9694259166717529,
                -0.025883132591843605
            ]
        },
        {
            "children" : [
                6
            ],
            "name" : "shoulder.L",
            "rotation" : [
                -0.6119951009750366,
                -0.32737600803375244,
                -0.33986783027648926,
                0.634647011756897
            ],
            "translation" : [
                0.16371861100196838,
                1.0689811706542969,
                0.792887806892395
            ]
        },
        {
            "name" : "hand.R",
            "rotation" : [
                -0.025143122300505638,
                -0.012668092735111713,
                0.02023288607597351,
                0.9993988275527954
            ],
            "scale" : [
                0.9999998807907104,
                1,
                1
            ],
            "translation" : [
                3.427267074584961e-07,
                2.7773828506469727,
                -2.9802322387695312e-08
            ]
        },
        {
            "children" : [
                8
            ],
            "name" : "forearm.R",
            "rotation" : [
                0.17461752891540527,
                0.1072898656129837,
                0.026320913806557655,
                0.9784196615219116
            ],
            "scale" : [
                1,
                1.0000001192092896,
                1
            ],
            "translation" : [
                2.4028122425079346e-07,
                3.066253185272217,
                -1.341104507446289e-07
            ]
        },
        {
            "children" : [
                9
            ],
            "name" : "upper_arm.R",
            "rotation" : [
                0.13002431392669678,
                -0.7394858002662659,
                0.11469539254903793,
                0.6504608988761902
            ],
            "scale" : [
                0.9999999403953552,
                0.9999998807907104,
                0.9999999403953552
            ],
            "translation" : [
                -0.6518362164497375,
                0.9694259166717529,
                -0.025883132591843605
            ]
        },
        {
            "children" : [
                10
            ],
            "name" : "shoulder.R",
            "rotation" : [
                -0.6119951009750366,
                0.32737600803375244,
                0.33986783027648926,
                0.634647011756897
            ],
            "translation" : [
                -0.16371861100196838,
                1.0689811706542969,
                0.792887806892395
            ]
        },
        {
            "name" : "breast.L",
            "rotation" : [
                3.147158977867548e-08,
                -0.6939886808395386,
                -0.7199859619140625,
                3.0335204570519636e-08
            ],
            "translation" : [
                1.0592503547668457,
                -0.03211687505245209,
                -0.4332394599914551
            ]
        },
        {
            "name" : "breast.R",
            "rotation" : [
                3.147158977867548e-08,
                -0.6939886808395386,
                -0.7199859619140625,
                3.0335204570519636e-08
            ],
            "translation" : [
                -1.0592503547668457,
                -0.03211687505245209,
                -0.43323948979377747
            ]
        },
        {
            "children" : [
                3,
                7,
                11,
                12,
                13
            ],
            "name" : "spine.003",
            "rotation" : [
                0.002093801274895668,
                -1.1920904086082373e-07,
                2.4960236655324763e-10,
                0.9999977946281433
            ],
            "scale" : [
                1,
                1.0000001192092896,
                1
            ],
            "translation" : [
                -4.926614671774132e-16,
                1.3614834547042847,
                0
            ]
        },
        {
            "children" : [
                14
            ],
            "name" : "spine.002",
            "rotation" : [
                -0.0994013249874115,
                3.2356722112585317e-15,
                -2.369912266431129e-08,
                0.9950475096702576
            ],
            "translation" : [
                -8.881784197001252e-15,
                1.0809848308563232,
                -1.4901161193847656e-08
            ]
        },
        {
            "children" : [
                15
            ],
            "name" : "spine.001",
            "rotation" : [
                -0.08105793595314026,
                -5.569442269126406e-16,
                -1.9325717914853158e-08,
                0.996709406375885
            ],
            "scale" : [
                1,
                1,
                0.9999998807907104
            ],
            "translation" : [
                -8.881784197001252e-15,
                1.222630262374878,
                5.960464477539063e-08
            ]
        },
        {
            "name" : "pelvis.L",
            "rotation" : [
                -0.15480199456214905,
                -0.8005486726760864,
                -0.3047175109386444,
                0.49224522709846497
            ],
            "scale" : [
                0.9999999403953552,
                1.0000001192092896,
                1
            ],
            "translation" : [
                1.9539925233402755e-14,
                1.4901161193847656e-07,
                -5.960464477539063e-08
            ]
        },
        {
            "name" : "pelvis.R",
            "rotation" : [
                -0.1548021137714386,
                0.8005486130714417,
                0.30471745133399963,
                0.4922454059123993
            ],
            "scale" : [
                1.0000001192092896,
                1,
                1.0000001192092896
            ],
            "translation" : [
                1.9539925233402755e-14,
                1.4901161193847656e-07,
                -5.960464477539063e-08
            ]
        },
        {
            "name" : "toe.L",
            "rotation" : [
                3.0359305469573883e-07,
                0.9745772480964661,
                -0.224051833152771,
                1.2353650618024403e-06
            ],
            "scale" : [
                1,
                0.9999997019767761,
                1.0000001192092896
            ],
            "translation" : [
                7.96721906226594e-08,
                1.2348078489303589,
                -2.3384427549899556e-07
            ]
        },
        {
            "name" : "heel.02.L",
            "rotation" : [
                0.689130425453186,
                0.6891300082206726,
                -0.15842761099338531,
                0.15842944383621216
            ],
            "translation" : [
                -0.33996403217315674,
                0.022112905979156494,
                0.7348396182060242
            ]
        },
        {
            "children" : [
                19,
                20
            ],
            "name" : "foot.L",
            "rotation" : [
                -0.5833836793899536,
                9.682136123956298e-07,
                -8.345368769369088e-07,
                0.812196671962738
            ],
            "scale" : [
                1,
                0.9999999403953552,
                1
            ],
            "translation" : [
                -9.375384024679079e-09,
                3.587155342102051,
                -2.9386555411292647e-08
            ]
        },
        {
            "children" : [
                21
            ],
            "name" : "shin.L",
            "rotation" : [
                0.11241430044174194,
                -9.300091946551348e-11,
                2.5979501216966128e-08,
                0.9936615228652954
            ],
            "scale" : [
                1,
                1.0000001192092896,
                1.0000001192092896
            ],
            "translation" : [
                3.0128262551443186e-08,
                4.230590343475342,
                6.002039754093857e-08
            ]
        },
        {
            "children" : [
                22
            ],
            "name" : "thigh.L",
            "rotation" : [
                0.9781502485275269,
                -8.093276604448363e-10,
                2.3338110111126298e-07,
                0.2078992873430252
            ],
            "scale" : [
                1,
                1,
                0.9999991655349731
            ],
            "translation" : [
                0.8767443895339966,
                0.6006335020065308,
                0.25770673155784607
            ]
        },
        {
            "name" : "toe.R",
            "rotation" : [
                3.0359305469573883e-07,
                0.9745772480964661,
                -0.224051833152771,
                1.2353650618024403e-06
            ],
            "scale" : [
                1,
                0.9999997019767761,
                1.0000001192092896
            ],
            "translation" : [
                -3.953709892812185e-08,
                1.2348077297210693,
                -1.0178532647842076e-06
            ]
        },
        {
            "name" : "heel.02.R",
            "rotation" : [
                0.6891298890113831,
                -0.689130425453186,
                0.15842947363853455,
                0.1584276258945465
            ],
            "scale" : [
                0.9999999403953552,
                0.9999999403953552,
                0.9999999403953552
            ],
            "translation" : [
                0.3399602174758911,
                0.022113382816314697,
                0.7348415851593018
            ]
        },
        {
            "children" : [
                24,
                25
            ],
            "name" : "foot.R",
            "rotation" : [
                -0.5833836793899536,
                9.682136123956298e-07,
                -8.345368769369088e-07,
                0.812196671962738
            ],
            "scale" : [
                1,
                0.9999999403953552,
                1
            ],
            "translation" : [
                -9.375384024679079e-09,
                3.587155342102051,
                2.9386555411292647e-08
            ]
        },
        {
            "children" : [
                26
            ],
            "name" : "shin.R",
            "rotation" : [
                0.11241430044174194,
                -9.300091946551348e-11,
                2.5979501216966128e-08,
                0.9936615228652954
            ],
            "scale" : [
                1,
                1.0000001192092896,
                1.0000001192092896
            ],
            "translation" : [
                3.0128262551443186e-08,
                4.230590343475342,
                -4.157527655479498e-10
            ]
        },
        {
            "children" : [
                27
            ],
            "name" : "thigh.R",
            "rotation" : [
                0.9781502485275269,
                -8.093276604448363e-10,
                2.3338110111126298e-07,
                0.2078992873430252
            ],
            "scale" : [
                1,
                1,
                0.9999991655349731
            ],
            "translation" : [
                -0.8767445087432861,
                0.6006335020065308,
                0.25770631432533264
            ]
        },
        {
            "children" : [
                16,
                17,
                18,
                23,
                28
            ],
            "name" : "spine",
            "rotation" : [
                0.15955016016960144,
                1.17682198208513e-07,
                1.9019859465174704e-08,
                0.9871898293495178
            ],
            "translation" : [
                4.675904108353279e-11,
                -6.99345064163208,
                -0.744093120098114
            ]
        },
        {
            "mesh" : 0,
            "name" : "Cube",
            "skin" : 0
        },
        {
            "children" : [
                30,
                29
            ],
            "name" : "metarig"
        }
    ],
    "materials" : [
        {
            "doubleSided" : true,
            "name" : "Material",
            "pbrMetallicRoughness" : {
                "baseColorFactor" : [
                    0.800000011920929,
                    0.800000011920929,
                    0.800000011920929,
                    1
                ],
                "metallicFactor" : 0,
                "roughnessFactor" : 0.4000000059604645
            }
        }
    ],
    "meshes" : [
        {
            "name" : "Cube",
            "primitives" : [
                {
                    "attributes" : {
                        "POSITION" : 0,
                        "NORMAL" : 1,
                        "TEXCOORD_0" : 2,
                        "COLOR_0" : 3,
                        "JOINTS_0" : 4,
                        "WEIGHTS_0" : 5
                    },
                    "indices" : 6,
                    "material" : 0
                }
            ]
        }
    ],
    "skins" : [
        {
            "inverseBindMatrices" : 7,
            "joints" : [
                29,
                16,
                15,
                14,
                3,
                2,
                1,
                0,
                7,
                6,
                5,
                4,
                11,
                10,
                9,
                8,
                12,
                13,
                17,
                18,
                23,
                22,
                21,
                19,
                20,
                28,
                27,
                26,
                24,
                25
            ],
            "name" : "metarig"
        }
    ],
    "accessors" : [
        {
            "bufferView" : 0,
            "componentType" : 5126,
            "count" : 2047,
            "max" : [
                8.141072273254395,
                1,
                1.7998316287994385
            ],
            "min" : [
                -8.141072273254395,
                -15.254608154296875,
                -1.150896430015564
            ],
            "type" : "VEC3"
        },
        {
            "bufferView" : 1,
            "componentType" : 5126,
            "count" : 2047,
            "type" : "VEC3"
        },
        {
            "bufferView" : 2,
            "componentType" : 5126,
            "count" : 2047,
            "type" : "VEC2"
        },
        {
            "bufferView" : 3,
            "componentType" : 5123,
            "count" : 2047,
            "normalized" : true,
            "type" : "VEC4"
        },
        {
            "bufferView" : 4,
            "componentType" : 5121,
            "count" : 2047,
            "type" : "VEC4"
        },
        {
            "bufferView" : 5,
            "componentType" : 5126,
            "count" : 2047,
            "type" : "VEC4"
        },
        {
            "bufferView" : 6,
            "componentType" : 5123,
            "count" : 3372,
            "type" : "SCALAR"
        },
        {
            "bufferView" : 7,
            "componentType" : 5126,
            "count" : 30,
            "type" : "MAT4"
        }
    ],
    "bufferViews" : [
        {
            "buffer" : 0,
            "byteLength" : 24564,
            "byteOffset" : 0
        },
        {
            "buffer" : 0,
            "byteLength" : 24564,
            "byteOffset" : 24564
        },
        {
            "buffer" : 0,
            "byteLength" : 16376,
            "byteOffset" : 49128
        },
        {
            "buffer" : 0,
            "byteLength" : 16376,
            "byteOffset" : 65504
        },
        {
            "buffer" : 0,
            "byteLength" : 8188,
            "byteOffset" : 81880
        },
        {
            "buffer" : 0,
            "byteLength" : 32752,
            "byteOffset" : 90068
        },
        {
            "buffer" : 0,
            "byteLength" : 6744,
            "byteOffset" : 122820
        },
        {
            "buffer" : 0,
            "byteLength" : 1920,
            "byteOffset" : 129564
        }
    ],
    "buffers" : [
        {
            "byteLength" : 131484,
            "uri" : "data:application/octet-stream;base64,"
        }
    ]
}
